<svg width="128" height="118" viewBox="0 0 128 118" fill="none" xmlns="http://www.w3.org/2000/svg">
<ellipse cx="65.5" cy="59" rx="62.5" ry="59" fill="#0384FC"/>
<path d="M58.88 55.08C58.8373 56.104 58.432 56.936 57.664 57.576C56.896 58.216 56 58.536 54.976 58.536H33.856C34.368 61.0533 35.5413 63.0373 37.376 64.488C39.2107 65.896 41.28 66.6 43.584 66.6C45.3333 66.6 46.6987 66.4507 47.68 66.152C48.6613 65.8107 49.4293 65.4693 49.984 65.128C50.5813 64.744 50.9867 64.488 51.2 64.36C51.968 63.976 52.6933 63.784 53.376 63.784C54.272 63.784 55.04 64.104 55.68 64.744C56.32 65.384 56.64 66.1307 56.64 66.984C56.64 68.136 56.0427 69.1813 54.848 70.12C53.6533 71.1013 52.0533 71.9333 50.048 72.616C48.0427 73.2987 46.016 73.64 43.968 73.64C40.384 73.64 37.248 72.8933 34.56 71.4C31.9147 69.9067 29.8667 67.8587 28.416 65.256C26.9653 62.6107 26.24 59.6453 26.24 56.36C26.24 52.6907 27.008 49.4693 28.544 46.696C30.08 43.9227 32.1067 41.8107 34.624 40.36C37.1413 38.8667 39.8293 38.12 42.688 38.12C45.504 38.12 48.1493 38.888 50.624 40.424C53.1413 41.96 55.1467 44.0293 56.64 46.632C58.1333 49.2347 58.88 52.0507 58.88 55.08ZM42.688 45.16C37.7387 45.16 34.816 47.4853 33.92 52.136H50.688V51.688C50.5173 49.896 49.6427 48.36 48.064 47.08C46.4853 45.8 44.6933 45.16 42.688 45.16ZM83.013 38.12C85.957 38.12 88.6237 38.888 91.013 40.424C93.4023 41.9173 95.2797 44.008 96.645 46.696C98.053 49.384 98.757 52.4347 98.757 55.848C98.757 59.2613 98.0743 62.3333 96.709 65.064C95.3437 67.752 93.4663 69.864 91.077 71.4C88.7303 72.8933 86.1277 73.64 83.269 73.64C81.221 73.64 79.2797 73.2347 77.445 72.424C75.653 71.5707 74.1597 70.5467 72.965 69.352V81.896C72.965 83.0053 72.6023 83.9227 71.877 84.648C71.1517 85.416 70.2343 85.8 69.125 85.8C68.0157 85.8 67.0983 85.4373 66.373 84.712C65.6477 83.9867 65.285 83.048 65.285 81.896V42.664C65.285 41.5547 65.6477 40.6373 66.373 39.912C67.0983 39.144 68.0157 38.76 69.125 38.76C70.2343 38.76 71.1517 39.144 71.877 39.912C72.6023 40.6373 72.965 41.5547 72.965 42.664V42.92C73.989 41.64 75.4183 40.5307 77.253 39.592C79.0877 38.6107 81.0077 38.12 83.013 38.12ZM82.053 66.6C84.7837 66.6 87.0237 65.576 88.773 63.528C90.5223 61.48 91.397 58.92 91.397 55.848C91.397 52.776 90.5223 50.2373 88.773 48.232C87.0663 46.184 84.8263 45.16 82.053 45.16C79.2797 45.16 77.0183 46.184 75.269 48.232C73.5197 50.2373 72.645 52.776 72.645 55.848C72.645 58.92 73.5197 61.48 75.269 63.528C77.0183 65.576 79.2797 66.6 82.053 66.6Z" fill="white"/>
</svg>
